<?xml version="1.0" encoding="utf-8" standalone="no"?>
<!DOCTYPE svg PUBLIC "-//W3C//DTD SVG 1.1//EN"
  "http://www.w3.org/Graphics/SVG/1.1/DTD/svg11.dtd">
<svg xmlns:xlink="http://www.w3.org/1999/xlink" width="1237.44pt" height="696pt" viewBox="0 0 1237.44 696" xmlns="http://www.w3.org/2000/svg" version="1.1">
 <metadata>
  <rdf:RDF xmlns:dc="http://purl.org/dc/elements/1.1/" xmlns:cc="http://creativecommons.org/ns#" xmlns:rdf="http://www.w3.org/1999/02/22-rdf-syntax-ns#">
   <cc:Work>
    <dc:type rdf:resource="http://purl.org/dc/dcmitype/StillImage"/>
    <dc:date>2026-08-17T07:31:06.701451</dc:date>
    <dc:format>image/svg+xml</dc:format>
    <dc:creator>
     <cc:Agent>
      <dc:title>Matplotlib v3.10.9, https://matplotlib.org/</dc:title>
     </cc:Agent>
    </dc:creator>
   </cc:Work>
  </rdf:RDF>
 </metadata>
 <defs>
  <style type="text/css">*{stroke-linejoin: round; stroke-linecap: butt}</style>
 </defs>
 <g id="figure_1">
  <g id="patch_1">
   <path d="M 0 696 
L 1237.44 696 
L 1237.44 0 
L 0 0 
L 0 696 
z
" style="fill: none; opacity: 0"/>
  </g>
  <g id="patch_2">
   <path d="M 43.681632 683.472 
L 1193.758368 683.472 
Q 1208.607648 683.472 1208.607648 675.12 
L 1208.607648 143.712 
Q 1208.607648 135.36 1193.758368 135.36 
L 43.681632 135.36 
Q 28.832352 135.36 28.832352 143.712 
L 28.832352 675.12 
Q 28.832352 683.472 43.681632 683.472 
z
" style="fill: #1c1c1a; stroke: #343431; stroke-linejoin: miter"/>
  </g>
  <g id="axes_1">
   <g id="patch_3">
    <path d="M 142.3056 605.52 
L 1175.568 605.52 
L 1175.568 184.44 
L 142.3056 184.44 
z
" style="fill: #1c1c1a"/>
   </g>
   <g id="matplotlib.axis_1">
    <g id="xtick_1">
     <g id="line2d_1">
      <path d="M 1009.777222 605.52 
L 1009.777222 184.44 
" clip-path="url(#pfdbb788a1f)" style="fill: none; stroke: #4a4a4a; stroke-opacity: 0.75; stroke-width: 0.8; stroke-linecap: square"/>
     </g>
     <g id="line2d_2">
      <defs>
       <path id="mdd38e14c25" d="M 0 0 
L 0 3.5 
" style="stroke: #a0a0a0; stroke-width: 0.8"/>
      </defs>
      <g>
       <use xlink:href="#mdd38e14c25" x="1009.777222" y="605.52" style="fill: #a0a0a0; stroke: #a0a0a0; stroke-width: 0.8"/>
      </g>
     </g>
     <g id="text_1">
      <!-- 1.7m -->
      <g style="fill: #a0a0a0" transform="translate(994.820191 622.705) scale(0.14 -0.14)">
       <defs>
        <path id="Inter-Regular-31" d="M 2041 4656 
L 1313 4656 
L 300 3909 
L 300 3272 
L 1425 4106 
L 1456 4106 
L 1456 0 
L 2041 0 
L 2041 4656 
z
" transform="scale(0.015625)"/>
        <path id="Inter-Regular-2e" d="M 922 -41 
C 1156 -41 1344 147 1344 381 
C 1344 616 1156 803 922 803 
C 688 803 500 616 500 381 
C 500 147 688 -41 922 -41 
z
" transform="scale(0.015625)"/>
        <path id="Inter-Regular-37" d="M 625 0 
L 1250 0 
L 3316 4103 
L 3316 4656 
L 306 4656 
L 306 4134 
L 2694 4134 
L 2694 4097 
L 625 0 
z
" transform="scale(0.015625)"/>
        <path id="Inter-Regular-6d" d="M 494 0 
L 1056 0 
L 1056 2200 
C 1056 2756 1428 3044 1838 3044 
C 2231 3044 2522 2784 2522 2397 
L 2522 0 
L 3084 0 
L 3084 2281 
C 3084 2722 3372 3044 3844 3044 
C 4219 3044 4550 2844 4550 2341 
L 4550 0 
L 5113 0 
L 5113 2356 
C 5113 3166 4619 3556 4013 3556 
C 3506 3556 3078 3284 2913 2844 
C 2788 3275 2481 3556 2022 3556 
C 1609 3556 1216 3325 1044 2853 
L 1041 3494 
L 494 3494 
L 494 0 
z
" transform="scale(0.015625)"/>
       </defs>
       <use xlink:href="#Inter-Regular-31"/>
       <use xlink:href="#Inter-Regular-2e" transform="translate(40.673828 0)"/>
       <use xlink:href="#Inter-Regular-37" transform="translate(69.482422 0)"/>
       <use xlink:href="#Inter-Regular-6d" transform="translate(126.074219 0)"/>
      </g>
     </g>
    </g>
    <g id="xtick_2">
     <g id="line2d_3">
      <path d="M 632.354463 605.52 
L 632.354463 184.44 
" clip-path="url(#pfdbb788a1f)" style="fill: none; stroke: #4a4a4a; stroke-opacity: 0.75; stroke-width: 0.8; stroke-linecap: square"/>
     </g>
     <g id="line2d_4">
      <g>
       <use xlink:href="#mdd38e14c25" x="632.354463" y="605.52" style="fill: #a0a0a0; stroke: #a0a0a0; stroke-width: 0.8"/>
      </g>
     </g>
     <g id="text_2">
      <!-- 16.7m -->
      <g style="fill: #a0a0a0" transform="translate(613.056338 622.705) scale(0.14 -0.14)">
       <defs>
        <path id="Inter-Regular-36" d="M 2019 -63 
C 2969 -63 3588 634 3588 1503 
C 3588 2403 2925 3044 2128 3044 
C 1644 3044 1231 2813 981 2425 
L 944 2425 
C 944 3544 1375 4194 2091 4194 
C 2575 4194 2866 3888 2969 3484 
L 3550 3484 
C 3438 4216 2872 4719 2091 4719 
C 1034 4719 381 3788 381 2150 
C 381 434 1241 -63 2019 -63 
z
M 2019 459 
C 1447 459 1028 947 1028 1497 
C 1028 2041 1469 2528 2034 2528 
C 2597 2528 3013 2072 3013 1503 
C 3013 922 2578 459 2019 459 
z
" transform="scale(0.015625)"/>
       </defs>
       <use xlink:href="#Inter-Regular-31"/>
       <use xlink:href="#Inter-Regular-36" transform="translate(40.673828 0)"/>
       <use xlink:href="#Inter-Regular-2e" transform="translate(102.685547 0)"/>
       <use xlink:href="#Inter-Regular-37" transform="translate(131.494141 0)"/>
       <use xlink:href="#Inter-Regular-6d" transform="translate(188.085938 0)"/>
      </g>
     </g>
    </g>
    <g id="xtick_3">
     <g id="line2d_5">
      <path d="M 254.931703 605.52 
L 254.931703 184.44 
" clip-path="url(#pfdbb788a1f)" style="fill: none; stroke: #4a4a4a; stroke-opacity: 0.75; stroke-width: 0.8; stroke-linecap: square"/>
     </g>
     <g id="line2d_6">
      <g>
       <use xlink:href="#mdd38e14c25" x="254.931703" y="605.52" style="fill: #a0a0a0; stroke: #a0a0a0; stroke-width: 0.8"/>
      </g>
     </g>
     <g id="text_3">
      <!-- 2.8h -->
      <g style="fill: #a0a0a0" transform="translate(240.177016 622.705) scale(0.14 -0.14)">
       <defs>
        <path id="Inter-Regular-32" d="M 481 0 
L 3447 0 
L 3447 522 
L 1300 522 
L 1300 559 
L 2319 1644 
C 3141 2519 3369 2916 3369 3419 
C 3369 4147 2778 4719 1947 4719 
C 1119 4719 494 4159 494 3334 
L 1063 3334 
C 1063 3859 1400 4203 1931 4203 
C 2428 4203 2806 3900 2806 3413 
C 2806 2984 2544 2666 2028 2106 
L 481 428 
L 481 0 
z
" transform="scale(0.015625)"/>
        <path id="Inter-Regular-38" d="M 1978 -63 
C 2916 -63 3578 478 3578 1238 
C 3578 1825 3175 2325 2669 2419 
L 2669 2444 
C 3109 2559 3403 2988 3403 3481 
C 3403 4191 2794 4719 1978 4719 
C 1150 4719 550 4191 550 3481 
C 550 2988 838 2559 1291 2444 
L 1291 2419 
C 769 2325 381 1825 381 1238 
C 381 478 1031 -63 1978 -63 
z
M 1978 453 
C 1350 453 966 775 966 1269 
C 966 1784 1391 2153 1978 2153 
C 2553 2153 2984 1784 2984 1269 
C 2984 775 2594 453 1978 453 
z
M 1978 2650 
C 1475 2650 1125 2966 1125 3438 
C 1125 3903 1463 4206 1978 4206 
C 2484 4206 2828 3903 2828 3438 
C 2828 2966 2469 2650 1978 2650 
z
" transform="scale(0.015625)"/>
        <path id="Inter-Regular-68" d="M 1056 2094 
C 1056 2691 1434 3031 1938 3031 
C 2425 3031 2725 2709 2725 2172 
L 2725 0 
L 3291 0 
L 3291 2219 
C 3291 3103 2813 3538 2106 3538 
C 1650 3538 1284 3353 1056 2888 
L 1056 4656 
L 494 4656 
L 494 0 
L 1056 0 
L 1056 2094 
z
" transform="scale(0.015625)"/>
       </defs>
       <use xlink:href="#Inter-Regular-32"/>
       <use xlink:href="#Inter-Regular-2e" transform="translate(60.986328 0)"/>
       <use xlink:href="#Inter-Regular-38" transform="translate(89.794922 0)"/>
       <use xlink:href="#Inter-Regular-68" transform="translate(151.660156 0)"/>
      </g>
     </g>
    </g>
    <g id="xtick_4">
     <g id="line2d_7">
      <path d="M 1159.968839 605.52 
L 1159.968839 184.44 
" clip-path="url(#pfdbb788a1f)" style="fill: none; stroke: #4a4a4a; stroke-opacity: 0.28; stroke-width: 0.35; stroke-linecap: square"/>
     </g>
     <g id="line2d_8">
      <defs>
       <path id="mc2a5a14f8c" d="M 0 0 
L 0 2 
" style="stroke: #000000; stroke-width: 0.6"/>
      </defs>
      <g>
       <use xlink:href="#mc2a5a14f8c" x="1159.968839" y="605.52" style="stroke: #000000; stroke-width: 0.6"/>
      </g>
     </g>
    </g>
    <g id="xtick_5">
     <g id="line2d_9">
      <path d="M 1123.392794 605.52 
L 1123.392794 184.44 
" clip-path="url(#pfdbb788a1f)" style="fill: none; stroke: #4a4a4a; stroke-opacity: 0.28; stroke-width: 0.35; stroke-linecap: square"/>
     </g>
     <g id="line2d_10">
      <g>
       <use xlink:href="#mc2a5a14f8c" x="1123.392794" y="605.52" style="stroke: #000000; stroke-width: 0.6"/>
      </g>
     </g>
    </g>
    <g id="xtick_6">
     <g id="line2d_11">
      <path d="M 1093.50799 605.52 
L 1093.50799 184.44 
" clip-path="url(#pfdbb788a1f)" style="fill: none; stroke: #4a4a4a; stroke-opacity: 0.28; stroke-width: 0.35; stroke-linecap: square"/>
     </g>
     <g id="line2d_12">
      <g>
       <use xlink:href="#mc2a5a14f8c" x="1093.50799" y="605.52" style="stroke: #000000; stroke-width: 0.6"/>
      </g>
     </g>
    </g>
    <g id="xtick_7">
     <g id="line2d_13">
      <path d="M 1068.240747 605.52 
L 1068.240747 184.44 
" clip-path="url(#pfdbb788a1f)" style="fill: none; stroke: #4a4a4a; stroke-opacity: 0.28; stroke-width: 0.35; stroke-linecap: square"/>
     </g>
     <g id="line2d_14">
      <g>
       <use xlink:href="#mc2a5a14f8c" x="1068.240747" y="605.52" style="stroke: #000000; stroke-width: 0.6"/>
      </g>
     </g>
    </g>
    <g id="xtick_8">
     <g id="line2d_15">
      <path d="M 1046.353267 605.52 
L 1046.353267 184.44 
" clip-path="url(#pfdbb788a1f)" style="fill: none; stroke: #4a4a4a; stroke-opacity: 0.28; stroke-width: 0.35; stroke-linecap: square"/>
     </g>
     <g id="line2d_16">
      <g>
       <use xlink:href="#mc2a5a14f8c" x="1046.353267" y="605.52" style="stroke: #000000; stroke-width: 0.6"/>
      </g>
     </g>
    </g>
    <g id="xtick_9">
     <g id="line2d_17">
      <path d="M 1027.047141 605.52 
L 1027.047141 184.44 
" clip-path="url(#pfdbb788a1f)" style="fill: none; stroke: #4a4a4a; stroke-opacity: 0.28; stroke-width: 0.35; stroke-linecap: square"/>
     </g>
     <g id="line2d_18">
      <g>
       <use xlink:href="#mc2a5a14f8c" x="1027.047141" y="605.52" style="stroke: #000000; stroke-width: 0.6"/>
      </g>
     </g>
    </g>
    <g id="xtick_10">
     <g id="line2d_19">
      <path d="M 896.161651 605.52 
L 896.161651 184.44 
" clip-path="url(#pfdbb788a1f)" style="fill: none; stroke: #4a4a4a; stroke-opacity: 0.28; stroke-width: 0.35; stroke-linecap: square"/>
     </g>
     <g id="line2d_20">
      <g>
       <use xlink:href="#mc2a5a14f8c" x="896.161651" y="605.52" style="stroke: #000000; stroke-width: 0.6"/>
      </g>
     </g>
    </g>
    <g id="xtick_11">
     <g id="line2d_21">
      <path d="M 829.700802 605.52 
L 829.700802 184.44 
" clip-path="url(#pfdbb788a1f)" style="fill: none; stroke: #4a4a4a; stroke-opacity: 0.28; stroke-width: 0.35; stroke-linecap: square"/>
     </g>
     <g id="line2d_22">
      <g>
       <use xlink:href="#mc2a5a14f8c" x="829.700802" y="605.52" style="stroke: #000000; stroke-width: 0.6"/>
      </g>
     </g>
    </g>
    <g id="xtick_12">
     <g id="line2d_23">
      <path d="M 782.546079 605.52 
L 782.546079 184.44 
" clip-path="url(#pfdbb788a1f)" style="fill: none; stroke: #4a4a4a; stroke-opacity: 0.28; stroke-width: 0.35; stroke-linecap: square"/>
     </g>
     <g id="line2d_24">
      <g>
       <use xlink:href="#mc2a5a14f8c" x="782.546079" y="605.52" style="stroke: #000000; stroke-width: 0.6"/>
      </g>
     </g>
    </g>
    <g id="xtick_13">
     <g id="line2d_25">
      <path d="M 745.970034 605.52 
L 745.970034 184.44 
" clip-path="url(#pfdbb788a1f)" style="fill: none; stroke: #4a4a4a; stroke-opacity: 0.28; stroke-width: 0.35; stroke-linecap: square"/>
     </g>
     <g id="line2d_26">
      <g>
       <use xlink:href="#mc2a5a14f8c" x="745.970034" y="605.52" style="stroke: #000000; stroke-width: 0.6"/>
      </g>
     </g>
    </g>
    <g id="xtick_14">
     <g id="line2d_27">
      <path d="M 716.08523 605.52 
L 716.08523 184.44 
" clip-path="url(#pfdbb788a1f)" style="fill: none; stroke: #4a4a4a; stroke-opacity: 0.28; stroke-width: 0.35; stroke-linecap: square"/>
     </g>
     <g id="line2d_28">
      <g>
       <use xlink:href="#mc2a5a14f8c" x="716.08523" y="605.52" style="stroke: #000000; stroke-width: 0.6"/>
      </g>
     </g>
    </g>
    <g id="xtick_15">
     <g id="line2d_29">
      <path d="M 690.817988 605.52 
L 690.817988 184.44 
" clip-path="url(#pfdbb788a1f)" style="fill: none; stroke: #4a4a4a; stroke-opacity: 0.28; stroke-width: 0.35; stroke-linecap: square"/>
     </g>
     <g id="line2d_30">
      <g>
       <use xlink:href="#mc2a5a14f8c" x="690.817988" y="605.52" style="stroke: #000000; stroke-width: 0.6"/>
      </g>
     </g>
    </g>
    <g id="xtick_16">
     <g id="line2d_31">
      <path d="M 668.930507 605.52 
L 668.930507 184.44 
" clip-path="url(#pfdbb788a1f)" style="fill: none; stroke: #4a4a4a; stroke-opacity: 0.28; stroke-width: 0.35; stroke-linecap: square"/>
     </g>
     <g id="line2d_32">
      <g>
       <use xlink:href="#mc2a5a14f8c" x="668.930507" y="605.52" style="stroke: #000000; stroke-width: 0.6"/>
      </g>
     </g>
    </g>
    <g id="xtick_17">
     <g id="line2d_33">
      <path d="M 649.624381 605.52 
L 649.624381 184.44 
" clip-path="url(#pfdbb788a1f)" style="fill: none; stroke: #4a4a4a; stroke-opacity: 0.28; stroke-width: 0.35; stroke-linecap: square"/>
     </g>
     <g id="line2d_34">
      <g>
       <use xlink:href="#mc2a5a14f8c" x="649.624381" y="605.52" style="stroke: #000000; stroke-width: 0.6"/>
      </g>
     </g>
    </g>
    <g id="xtick_18">
     <g id="line2d_35">
      <path d="M 518.738891 605.52 
L 518.738891 184.44 
" clip-path="url(#pfdbb788a1f)" style="fill: none; stroke: #4a4a4a; stroke-opacity: 0.28; stroke-width: 0.35; stroke-linecap: square"/>
     </g>
     <g id="line2d_36">
      <g>
       <use xlink:href="#mc2a5a14f8c" x="518.738891" y="605.52" style="stroke: #000000; stroke-width: 0.6"/>
      </g>
     </g>
    </g>
    <g id="xtick_19">
     <g id="line2d_37">
      <path d="M 452.278042 605.52 
L 452.278042 184.44 
" clip-path="url(#pfdbb788a1f)" style="fill: none; stroke: #4a4a4a; stroke-opacity: 0.28; stroke-width: 0.35; stroke-linecap: square"/>
     </g>
     <g id="line2d_38">
      <g>
       <use xlink:href="#mc2a5a14f8c" x="452.278042" y="605.52" style="stroke: #000000; stroke-width: 0.6"/>
      </g>
     </g>
    </g>
    <g id="xtick_20">
     <g id="line2d_39">
      <path d="M 405.123319 605.52 
L 405.123319 184.44 
" clip-path="url(#pfdbb788a1f)" style="fill: none; stroke: #4a4a4a; stroke-opacity: 0.28; stroke-width: 0.35; stroke-linecap: square"/>
     </g>
     <g id="line2d_40">
      <g>
       <use xlink:href="#mc2a5a14f8c" x="405.123319" y="605.52" style="stroke: #000000; stroke-width: 0.6"/>
      </g>
     </g>
    </g>
    <g id="xtick_21">
     <g id="line2d_41">
      <path d="M 368.547275 605.52 
L 368.547275 184.44 
" clip-path="url(#pfdbb788a1f)" style="fill: none; stroke: #4a4a4a; stroke-opacity: 0.28; stroke-width: 0.35; stroke-linecap: square"/>
     </g>
     <g id="line2d_42">
      <g>
       <use xlink:href="#mc2a5a14f8c" x="368.547275" y="605.52" style="stroke: #000000; stroke-width: 0.6"/>
      </g>
     </g>
    </g>
    <g id="xtick_22">
     <g id="line2d_43">
      <path d="M 338.66247 605.52 
L 338.66247 184.44 
" clip-path="url(#pfdbb788a1f)" style="fill: none; stroke: #4a4a4a; stroke-opacity: 0.28; stroke-width: 0.35; stroke-linecap: square"/>
     </g>
     <g id="line2d_44">
      <g>
       <use xlink:href="#mc2a5a14f8c" x="338.66247" y="605.52" style="stroke: #000000; stroke-width: 0.6"/>
      </g>
     </g>
    </g>
    <g id="xtick_23">
     <g id="line2d_45">
      <path d="M 313.395228 605.52 
L 313.395228 184.44 
" clip-path="url(#pfdbb788a1f)" style="fill: none; stroke: #4a4a4a; stroke-opacity: 0.28; stroke-width: 0.35; stroke-linecap: square"/>
     </g>
     <g id="line2d_46">
      <g>
       <use xlink:href="#mc2a5a14f8c" x="313.395228" y="605.52" style="stroke: #000000; stroke-width: 0.6"/>
      </g>
     </g>
    </g>
    <g id="xtick_24">
     <g id="line2d_47">
      <path d="M 291.507748 605.52 
L 291.507748 184.44 
" clip-path="url(#pfdbb788a1f)" style="fill: none; stroke: #4a4a4a; stroke-opacity: 0.28; stroke-width: 0.35; stroke-linecap: square"/>
     </g>
     <g id="line2d_48">
      <g>
       <use xlink:href="#mc2a5a14f8c" x="291.507748" y="605.52" style="stroke: #000000; stroke-width: 0.6"/>
      </g>
     </g>
    </g>
    <g id="xtick_25">
     <g id="line2d_49">
      <path d="M 272.201621 605.52 
L 272.201621 184.44 
" clip-path="url(#pfdbb788a1f)" style="fill: none; stroke: #4a4a4a; stroke-opacity: 0.28; stroke-width: 0.35; stroke-linecap: square"/>
     </g>
     <g id="line2d_50">
      <g>
       <use xlink:href="#mc2a5a14f8c" x="272.201621" y="605.52" style="stroke: #000000; stroke-width: 0.6"/>
      </g>
     </g>
    </g>
    <g id="text_4">
     <!-- Accumulated query runtime  ·  slower ←     → faster -->
     <g style="fill: #a0a0a0" transform="translate(464.7368 651.749375) scale(0.16 -0.16)">
      <defs>
       <path id="Inter-Regular-41" d="M 163 0 
L 794 0 
L 1244 1300 
L 3163 1300 
L 3628 0 
L 4253 0 
L 2541 4656 
L 1853 4656 
L 163 0 
z
M 1425 1819 
L 1753 2763 
C 1853 3050 1997 3494 2194 4181 
C 2391 3506 2528 3075 2641 2763 
L 2978 1819 
L 1425 1819 
z
" transform="scale(0.015625)"/>
       <path id="Inter-Regular-63" d="M 1916 -75 
C 2600 -75 3156 297 3344 919 
L 2806 1072 
C 2703 694 2384 428 1916 428 
C 1219 428 897 1038 897 1725 
C 897 2422 1219 3034 1916 3034 
C 2375 3034 2688 2778 2791 2419 
L 3331 2572 
C 3141 3181 2591 3538 1916 3538 
C 966 3538 325 2819 325 1725 
C 325 647 966 -75 1916 -75 
z
" transform="scale(0.015625)"/>
       <path id="Inter-Regular-75" d="M 1678 -44 
C 2138 -44 2519 144 2747 653 
L 2747 0 
L 3291 0 
L 3291 3494 
L 2725 3494 
L 2725 1400 
C 2725 803 2347 463 1847 463 
C 1359 463 1056 784 1056 1322 
L 1056 3494 
L 494 3494 
L 494 1275 
C 494 391 972 -44 1678 -44 
z
" transform="scale(0.015625)"/>
       <path id="Inter-Regular-6c" d="M 1056 4656 
L 494 4656 
L 494 0 
L 1056 0 
L 1056 4656 
z
" transform="scale(0.015625)"/>
       <path id="Inter-Regular-61" d="M 1472 -81 
C 2063 -81 2391 228 2509 475 
L 2547 475 
L 2547 0 
L 3100 0 
L 3100 2303 
C 3100 3394 2259 3538 1791 3538 
C 1250 3538 650 3344 381 2709 
L 922 2531 
C 1031 2775 1303 3044 1806 3044 
C 2291 3044 2538 2794 2538 2359 
L 2538 2341 
C 2538 2081 2263 2100 1641 2022 
C 994 1941 281 1794 281 994 
C 281 306 809 -81 1472 -81 
z
M 1569 416 
C 1150 416 847 603 847 966 
C 847 1363 1206 1494 1616 1547 
C 1831 1575 2444 1638 2538 1747 
L 2538 1263 
C 2538 834 2191 416 1569 416 
z
" transform="scale(0.015625)"/>
       <path id="Inter-Regular-74" d="M 1869 3494 
L 1150 3494 
L 1150 4325 
L 588 4325 
L 588 3494 
L 63 3494 
L 63 3013 
L 588 3013 
L 588 863 
C 588 291 944 -44 1547 -44 
C 1691 -44 1850 -22 1966 19 
L 1850 494 
C 1756 475 1634 456 1563 456 
C 1266 456 1150 594 1150 906 
L 1150 3013 
L 1869 3013 
L 1869 3494 
z
" transform="scale(0.015625)"/>
       <path id="Inter-Regular-65" d="M 1963 -75 
C 2678 -75 3200 284 3363 813 
L 2819 963 
C 2688 606 2378 425 1966 425 
C 1347 425 922 825 894 1556 
L 3419 1556 
L 3419 1791 
C 3419 3081 2638 3538 1897 3538 
C 944 3538 325 2791 325 1719 
C 325 644 950 -75 1963 -75 
z
M 897 2031 
C 931 2566 1297 3038 1897 3038 
C 2472 3038 2794 2625 2847 2031 
L 897 2031 
z
" transform="scale(0.015625)"/>
       <path id="Inter-Regular-64" d="M 1803 -75 
C 2469 -75 2703 347 2819 541 
L 2881 541 
L 2881 0 
L 3425 0 
L 3425 4656 
L 2863 4656 
L 2863 2934 
L 2819 2934 
C 2703 3119 2488 3538 1806 3538 
C 934 3538 325 2844 325 1738 
C 325 625 931 -75 1803 -75 
z
M 1888 428 
C 1234 428 897 1009 897 1744 
C 897 2469 1225 3034 1888 3034 
C 2531 3034 2869 2516 2869 1744 
C 2869 966 2522 428 1888 428 
z
" transform="scale(0.015625)"/>
       <path id="Inter-Regular-20" transform="scale(0.015625)"/>
       <path id="Inter-Regular-71" d="M 3425 -1306 
L 3425 3494 
L 2881 3494 
L 2881 2934 
L 2819 2934 
C 2703 3119 2488 3538 1806 3538 
C 934 3538 325 2844 325 1738 
C 325 625 931 -75 1803 -75 
C 2469 -75 2703 347 2819 541 
L 2863 541 
L 2863 -1306 
L 3425 -1306 
z
M 1888 428 
C 1234 428 897 1009 897 1744 
C 897 2469 1225 3034 1888 3034 
C 2531 3034 2869 2516 2869 1744 
C 2869 966 2522 428 1888 428 
z
" transform="scale(0.015625)"/>
       <path id="Inter-Regular-72" d="M 494 0 
L 1056 0 
L 1056 2188 
C 1056 2659 1425 3000 1928 3000 
C 2078 3000 2231 2975 2266 2969 
L 2266 3534 
C 2200 3538 2063 3544 1981 3544 
C 1566 3544 1203 3309 1075 2956 
L 1038 2956 
L 1038 3494 
L 494 3494 
L 494 0 
z
" transform="scale(0.015625)"/>
       <path id="Inter-Regular-79" d="M 438 -1266 
C 497 -1294 650 -1331 850 -1331 
C 1344 -1331 1681 -1078 1894 -522 
L 3428 3494 
L 2816 3494 
L 2066 1422 
C 1956 1119 1875 816 1797 525 
C 1716 816 1638 1116 1528 1422 
L 784 3494 
L 169 3494 
L 1503 -19 
L 1403 -309 
C 1231 -809 984 -884 641 -794 
L 581 -778 
L 438 -1266 
z
" transform="scale(0.015625)"/>
       <path id="Inter-Regular-6e" d="M 1056 2094 
C 1056 2691 1434 3031 1938 3031 
C 2425 3031 2725 2709 2725 2172 
L 2725 0 
L 3288 0 
L 3288 2219 
C 3288 3103 2813 3538 2106 3538 
C 1638 3538 1263 3341 1038 2847 
L 1034 3494 
L 494 3494 
L 494 0 
L 1056 0 
L 1056 2094 
z
" transform="scale(0.015625)"/>
       <path id="Inter-Regular-69" d="M 494 0 
L 1056 0 
L 1056 3494 
L 494 3494 
L 494 0 
z
M 778 4066 
C 994 4066 1172 4231 1172 4438 
C 1172 4644 994 4809 778 4809 
C 566 4809 388 4644 388 4438 
C 388 4231 566 4066 778 4066 
z
" transform="scale(0.015625)"/>
       <path id="Inter-Regular-b7" d="M 922 1791 
C 1156 1791 1344 1978 1344 2213 
C 1344 2447 1156 2634 922 2634 
C 688 2634 500 2447 500 2213 
C 500 1978 688 1791 922 1791 
z
" transform="scale(0.015625)"/>
       <path id="Inter-Regular-73" d="M 1681 -75 
C 2500 -75 3059 372 3059 984 
C 3059 1463 2763 1778 2128 1928 
L 1600 2053 
C 1191 2150 1013 2294 1013 2553 
C 1013 2844 1325 3059 1741 3059 
C 2191 3059 2388 2816 2484 2566 
L 2994 2697 
C 2834 3188 2456 3538 1738 3538 
C 994 3538 444 3119 444 2519 
C 444 2028 747 1716 1381 1566 
L 1963 1428 
C 2306 1347 2475 1188 2475 947 
C 2475 659 2163 419 1675 419 
C 1256 419 972 591 872 975 
L 338 847 
C 463 244 963 -75 1681 -75 
z
" transform="scale(0.015625)"/>
       <path id="Inter-Regular-6f" d="M 1916 -75 
C 2869 -75 3513 647 3513 1725 
C 3513 2819 2869 3538 1916 3538 
C 966 3538 325 2819 325 1725 
C 325 647 966 -75 1916 -75 
z
M 1916 428 
C 1219 428 897 1038 897 1725 
C 897 2422 1219 3034 1916 3034 
C 2622 3034 2944 2419 2944 1725 
C 2944 1038 2622 428 1916 428 
z
" transform="scale(0.015625)"/>
       <path id="Inter-Regular-77" d="M 1278 0 
L 1838 0 
L 2291 1581 
C 2403 1972 2513 2409 2619 2853 
C 2725 2406 2831 1981 2947 1581 
L 3400 0 
L 3959 0 
L 5019 3494 
L 4422 3494 
L 3997 1969 
C 3891 1588 3775 1147 3659 613 
C 3550 1153 3438 1597 3338 1969 
L 2925 3494 
L 2325 3494 
L 1906 1969 
C 1800 1581 1688 1134 1575 603 
C 1459 1159 1341 1603 1241 1969 
L 816 3494 
L 219 3494 
L 1278 0 
z
" transform="scale(0.015625)"/>
       <path id="Inter-Regular-2190" d="M 2669 0 
L 3031 363 
L 2372 1019 
C 2097 1294 1694 1625 1381 1866 
C 1619 1819 1859 1778 2100 1778 
L 5306 1778 
L 5306 2297 
L 2100 2297 
C 1859 2297 1619 2256 1381 2209 
C 1694 2450 2097 2781 2372 3056 
L 3031 3713 
L 2669 4075 
L 631 2038 
L 2669 0 
z
" transform="scale(0.015625)"/>
       <path id="Inter-Regular-2192" d="M 3438 0 
L 5475 2038 
L 3438 4075 
L 3075 3713 
L 3734 3056 
C 4009 2781 4413 2450 4725 2209 
C 4488 2256 4247 2297 4006 2297 
L 800 2297 
L 800 1778 
L 4006 1778 
C 4247 1778 4488 1819 4725 1866 
C 4413 1625 4009 1294 3734 1019 
L 3075 363 
L 3438 0 
z
" transform="scale(0.015625)"/>
       <path id="Inter-Regular-66" d="M 2119 3494 
L 1313 3494 
L 1313 3834 
C 1313 4172 1463 4353 1809 4353 
C 1966 4353 2053 4319 2113 4300 
L 2269 4781 
C 2184 4819 2009 4875 1744 4875 
C 1234 4875 750 4566 750 3959 
L 750 3494 
L 63 3494 
L 63 3013 
L 750 3013 
L 750 0 
L 1313 0 
L 1313 3013 
L 2119 3013 
L 2119 3494 
z
" transform="scale(0.015625)"/>
      </defs>
      <use xlink:href="#Inter-Regular-41"/>
      <use xlink:href="#Inter-Regular-63" transform="translate(68.994141 0)"/>
      <use xlink:href="#Inter-Regular-63" transform="translate(126.123047 0)"/>
      <use xlink:href="#Inter-Regular-75" transform="translate(183.251953 0)"/>
      <use xlink:href="#Inter-Regular-6d" transform="translate(242.382812 0)"/>
      <use xlink:href="#Inter-Regular-75" transform="translate(329.980469 0)"/>
      <use xlink:href="#Inter-Regular-6c" transform="translate(389.111328 0)"/>
      <use xlink:href="#Inter-Regular-61" transform="translate(413.330078 0)"/>
      <use xlink:href="#Inter-Regular-74" transform="translate(469.482422 0)"/>
      <use xlink:href="#Inter-Regular-65" transform="translate(502.197266 0)"/>
      <use xlink:href="#Inter-Regular-64" transform="translate(560.498047 0)"/>
      <use xlink:href="#Inter-Regular-20" transform="translate(621.728516 0)"/>
      <use xlink:href="#Inter-Regular-71" transform="translate(649.853516 0)"/>
      <use xlink:href="#Inter-Regular-75" transform="translate(711.083984 0)"/>
      <use xlink:href="#Inter-Regular-65" transform="translate(770.214844 0)"/>
      <use xlink:href="#Inter-Regular-72" transform="translate(828.515625 0)"/>
      <use xlink:href="#Inter-Regular-79" transform="translate(866.162109 0)"/>
      <use xlink:href="#Inter-Regular-20" transform="translate(922.363281 0)"/>
      <use xlink:href="#Inter-Regular-72" transform="translate(950.488281 0)"/>
      <use xlink:href="#Inter-Regular-75" transform="translate(988.134766 0)"/>
      <use xlink:href="#Inter-Regular-6e" transform="translate(1047.265625 0)"/>
      <use xlink:href="#Inter-Regular-74" transform="translate(1106.347656 0)"/>
      <use xlink:href="#Inter-Regular-69" transform="translate(1139.0625 0)"/>
      <use xlink:href="#Inter-Regular-6d" transform="translate(1163.28125 0)"/>
      <use xlink:href="#Inter-Regular-65" transform="translate(1250.878906 0)"/>
      <use xlink:href="#Inter-Regular-20" transform="translate(1309.179688 0)"/>
      <use xlink:href="#Inter-Regular-20" transform="translate(1337.304688 0)"/>
      <use xlink:href="#Inter-Regular-b7" transform="translate(1365.429688 0)"/>
      <use xlink:href="#Inter-Regular-20" transform="translate(1394.238281 0)"/>
      <use xlink:href="#Inter-Regular-20" transform="translate(1422.363281 0)"/>
      <use xlink:href="#Inter-Regular-73" transform="translate(1450.488281 0)"/>
      <use xlink:href="#Inter-Regular-6c" transform="translate(1503.271484 0)"/>
      <use xlink:href="#Inter-Regular-6f" transform="translate(1527.490234 0)"/>
      <use xlink:href="#Inter-Regular-77" transform="translate(1587.451172 0)"/>
      <use xlink:href="#Inter-Regular-65" transform="translate(1669.287109 0)"/>
      <use xlink:href="#Inter-Regular-72" transform="translate(1727.587891 0)"/>
      <use xlink:href="#Inter-Regular-20" transform="translate(1765.234375 0)"/>
      <use xlink:href="#Inter-Regular-2190" transform="translate(1793.359375 0)"/>
      <use xlink:href="#Inter-Regular-20" transform="translate(1888.769531 0)"/>
      <use xlink:href="#Inter-Regular-20" transform="translate(1916.894531 0)"/>
      <use xlink:href="#Inter-Regular-20" transform="translate(1945.019531 0)"/>
      <use xlink:href="#Inter-Regular-20" transform="translate(1973.144531 0)"/>
      <use xlink:href="#Inter-Regular-20" transform="translate(2001.269531 0)"/>
      <use xlink:href="#Inter-Regular-2192" transform="translate(2029.394531 0)"/>
      <use xlink:href="#Inter-Regular-20" transform="translate(2124.804688 0)"/>
      <use xlink:href="#Inter-Regular-66" transform="translate(2152.929688 0)"/>
      <use xlink:href="#Inter-Regular-61" transform="translate(2189.941406 0)"/>
      <use xlink:href="#Inter-Regular-73" transform="translate(2246.09375 0)"/>
      <use xlink:href="#Inter-Regular-74" transform="translate(2298.876953 0)"/>
      <use xlink:href="#Inter-Regular-65" transform="translate(2331.591797 0)"/>
      <use xlink:href="#Inter-Regular-72" transform="translate(2389.892578 0)"/>
     </g>
    </g>
   </g>
   <g id="matplotlib.axis_2">
    <g id="ytick_1">
     <g id="line2d_51">
      <path d="M 142.3056 323.320808 
L 1175.568 323.320808 
" clip-path="url(#pfdbb788a1f)" style="fill: none; stroke: #4a4a4a; stroke-opacity: 0.75; stroke-width: 0.8; stroke-linecap: square"/>
     </g>
     <g id="line2d_52">
      <defs>
       <path id="md856e734ea" d="M 0 0 
L -3.5 0 
" style="stroke: #a0a0a0; stroke-width: 0.8"/>
      </defs>
      <g>
       <use xlink:href="#md856e734ea" x="142.3056" y="323.320808" style="fill: #a0a0a0; stroke: #a0a0a0; stroke-width: 0.8"/>
      </g>
     </g>
     <g id="text_5">
      <!-- $100 -->
      <g style="fill: #a0a0a0" transform="translate(102.963413 328.475652) scale(0.14 -0.14)">
       <defs>
        <path id="Inter-Regular-24" d="M 1866 -681 
L 2241 -681 
L 2241 -75 
C 3200 -9 3744 553 3744 1269 
C 3744 2138 2925 2419 2425 2556 
L 2241 2606 
L 2241 4184 
C 2709 4138 3053 3888 3100 3481 
L 3681 3481 
C 3653 4147 3081 4659 2241 4716 
L 2241 5338 
L 1866 5338 
L 1866 4706 
C 1078 4628 494 4128 494 3409 
C 494 2791 931 2406 1681 2194 
L 1866 2141 
L 1866 459 
C 1400 509 1013 753 972 1219 
L 363 1219 
C 413 488 966 -16 1866 -75 
L 1866 -681 
z
M 2241 459 
L 2241 2034 
L 2244 2034 
C 2741 1894 3166 1728 3166 1278 
C 3166 831 2778 519 2241 459 
z
M 1866 2713 
C 1528 2809 1072 2994 1072 3438 
C 1072 3822 1381 4116 1866 4181 
L 1866 2713 
z
" transform="scale(0.015625)"/>
        <path id="Inter-Regular-30" d="M 2019 -63 
C 3059 -63 3656 809 3656 2325 
C 3656 3834 3050 4719 2019 4719 
C 988 4719 381 3834 381 2325 
C 381 806 981 -63 2019 -63 
z
M 2019 456 
C 1338 456 953 1144 953 2325 
C 953 3509 1338 4203 2019 4203 
C 2700 4203 3084 3513 3084 2325 
C 3084 1144 2700 456 2019 456 
z
" transform="scale(0.015625)"/>
       </defs>
       <use xlink:href="#Inter-Regular-24"/>
       <use xlink:href="#Inter-Regular-31" transform="translate(64.160156 0)"/>
       <use xlink:href="#Inter-Regular-30" transform="translate(104.833984 0)"/>
       <use xlink:href="#Inter-Regular-30" transform="translate(167.919922 0)"/>
      </g>
     </g>
    </g>
    <g id="ytick_2">
     <g id="line2d_53">
      <path d="M 142.3056 513.091513 
L 1175.568 513.091513 
" clip-path="url(#pfdbb788a1f)" style="fill: none; stroke: #4a4a4a; stroke-opacity: 0.75; stroke-width: 0.8; stroke-linecap: square"/>
     </g>
     <g id="line2d_54">
      <g>
       <use xlink:href="#md856e734ea" x="142.3056" y="513.091513" style="fill: #a0a0a0; stroke: #a0a0a0; stroke-width: 0.8"/>
      </g>
     </g>
     <g id="text_6">
      <!-- $1,000 -->
      <g style="fill: #a0a0a0" transform="translate(90.096537 518.7287) scale(0.14 -0.14)">
       <defs>
        <path id="Inter-Regular-2c" d="M 400 -1122 
L 831 -1122 
L 1319 650 
L 675 650 
L 400 -1122 
z
" transform="scale(0.015625)"/>
       </defs>
       <use xlink:href="#Inter-Regular-24"/>
       <use xlink:href="#Inter-Regular-31" transform="translate(64.160156 0)"/>
       <use xlink:href="#Inter-Regular-2c" transform="translate(104.833984 0)"/>
       <use xlink:href="#Inter-Regular-30" transform="translate(133.642578 0)"/>
       <use xlink:href="#Inter-Regular-30" transform="translate(196.728516 0)"/>
       <use xlink:href="#Inter-Regular-30" transform="translate(259.814453 0)"/>
      </g>
     </g>
    </g>
    <g id="ytick_3">
     <g id="line2d_55">
      <path d="M 142.3056 190.676777 
L 1175.568 190.676777 
" clip-path="url(#pfdbb788a1f)" style="fill: none; stroke: #4a4a4a; stroke-opacity: 0.28; stroke-width: 0.35; stroke-linecap: square"/>
     </g>
     <g id="line2d_56">
      <defs>
       <path id="m69899ad64a" d="M 0 0 
L -2 0 
" style="stroke: #000000; stroke-width: 0.6"/>
      </defs>
      <g>
       <use xlink:href="#m69899ad64a" x="142.3056" y="190.676777" style="stroke: #000000; stroke-width: 0.6"/>
      </g>
     </g>
    </g>
    <g id="ytick_4">
     <g id="line2d_57">
      <path d="M 142.3056 224.09374 
L 1175.568 224.09374 
" clip-path="url(#pfdbb788a1f)" style="fill: none; stroke: #4a4a4a; stroke-opacity: 0.28; stroke-width: 0.35; stroke-linecap: square"/>
     </g>
     <g id="line2d_58">
      <g>
       <use xlink:href="#m69899ad64a" x="142.3056" y="224.09374" style="stroke: #000000; stroke-width: 0.6"/>
      </g>
     </g>
    </g>
    <g id="ytick_5">
     <g id="line2d_59">
      <path d="M 142.3056 247.803452 
L 1175.568 247.803452 
" clip-path="url(#pfdbb788a1f)" style="fill: none; stroke: #4a4a4a; stroke-opacity: 0.28; stroke-width: 0.35; stroke-linecap: square"/>
     </g>
     <g id="line2d_60">
      <g>
       <use xlink:href="#m69899ad64a" x="142.3056" y="247.803452" style="stroke: #000000; stroke-width: 0.6"/>
      </g>
     </g>
    </g>
    <g id="ytick_6">
     <g id="line2d_61">
      <path d="M 142.3056 266.194133 
L 1175.568 266.194133 
" clip-path="url(#pfdbb788a1f)" style="fill: none; stroke: #4a4a4a; stroke-opacity: 0.28; stroke-width: 0.35; stroke-linecap: square"/>
     </g>
     <g id="line2d_62">
      <g>
       <use xlink:href="#m69899ad64a" x="142.3056" y="266.194133" style="stroke: #000000; stroke-width: 0.6"/>
      </g>
     </g>
    </g>
    <g id="ytick_7">
     <g id="line2d_63">
      <path d="M 142.3056 281.220414 
L 1175.568 281.220414 
" clip-path="url(#pfdbb788a1f)" style="fill: none; stroke: #4a4a4a; stroke-opacity: 0.28; stroke-width: 0.35; stroke-linecap: square"/>
     </g>
     <g id="line2d_64">
      <g>
       <use xlink:href="#m69899ad64a" x="142.3056" y="281.220414" style="stroke: #000000; stroke-width: 0.6"/>
      </g>
     </g>
    </g>
    <g id="ytick_8">
     <g id="line2d_65">
      <path d="M 142.3056 293.924954 
L 1175.568 293.924954 
" clip-path="url(#pfdbb788a1f)" style="fill: none; stroke: #4a4a4a; stroke-opacity: 0.28; stroke-width: 0.35; stroke-linecap: square"/>
     </g>
     <g id="line2d_66">
      <g>
       <use xlink:href="#m69899ad64a" x="142.3056" y="293.924954" style="stroke: #000000; stroke-width: 0.6"/>
      </g>
     </g>
    </g>
    <g id="ytick_9">
     <g id="line2d_67">
      <path d="M 142.3056 304.930126 
L 1175.568 304.930126 
" clip-path="url(#pfdbb788a1f)" style="fill: none; stroke: #4a4a4a; stroke-opacity: 0.28; stroke-width: 0.35; stroke-linecap: square"/>
     </g>
     <g id="line2d_68">
      <g>
       <use xlink:href="#m69899ad64a" x="142.3056" y="304.930126" style="stroke: #000000; stroke-width: 0.6"/>
      </g>
     </g>
    </g>
    <g id="ytick_10">
     <g id="line2d_69">
      <path d="M 142.3056 314.637377 
L 1175.568 314.637377 
" clip-path="url(#pfdbb788a1f)" style="fill: none; stroke: #4a4a4a; stroke-opacity: 0.28; stroke-width: 0.35; stroke-linecap: square"/>
     </g>
     <g id="line2d_70">
      <g>
       <use xlink:href="#m69899ad64a" x="142.3056" y="314.637377" style="stroke: #000000; stroke-width: 0.6"/>
      </g>
     </g>
    </g>
    <g id="ytick_11">
     <g id="line2d_71">
      <path d="M 142.3056 380.447482 
L 1175.568 380.447482 
" clip-path="url(#pfdbb788a1f)" style="fill: none; stroke: #4a4a4a; stroke-opacity: 0.28; stroke-width: 0.35; stroke-linecap: square"/>
     </g>
     <g id="line2d_72">
      <g>
       <use xlink:href="#m69899ad64a" x="142.3056" y="380.447482" style="stroke: #000000; stroke-width: 0.6"/>
      </g>
     </g>
    </g>
    <g id="ytick_12">
     <g id="line2d_73">
      <path d="M 142.3056 413.864445 
L 1175.568 413.864445 
" clip-path="url(#pfdbb788a1f)" style="fill: none; stroke: #4a4a4a; stroke-opacity: 0.28; stroke-width: 0.35; stroke-linecap: square"/>
     </g>
     <g id="line2d_74">
      <g>
       <use xlink:href="#m69899ad64a" x="142.3056" y="413.864445" style="stroke: #000000; stroke-width: 0.6"/>
      </g>
     </g>
    </g>
    <g id="ytick_13">
     <g id="line2d_75">
      <path d="M 142.3056 437.574157 
L 1175.568 437.574157 
" clip-path="url(#pfdbb788a1f)" style="fill: none; stroke: #4a4a4a; stroke-opacity: 0.28; stroke-width: 0.35; stroke-linecap: square"/>
     </g>
     <g id="line2d_76">
      <g>
       <use xlink:href="#m69899ad64a" x="142.3056" y="437.574157" style="stroke: #000000; stroke-width: 0.6"/>
      </g>
     </g>
    </g>
    <g id="ytick_14">
     <g id="line2d_77">
      <path d="M 142.3056 455.964838 
L 1175.568 455.964838 
" clip-path="url(#pfdbb788a1f)" style="fill: none; stroke: #4a4a4a; stroke-opacity: 0.28; stroke-width: 0.35; stroke-linecap: square"/>
     </g>
     <g id="line2d_78">
      <g>
       <use xlink:href="#m69899ad64a" x="142.3056" y="455.964838" style="stroke: #000000; stroke-width: 0.6"/>
      </g>
     </g>
    </g>
    <g id="ytick_15">
     <g id="line2d_79">
      <path d="M 142.3056 470.991119 
L 1175.568 470.991119 
" clip-path="url(#pfdbb788a1f)" style="fill: none; stroke: #4a4a4a; stroke-opacity: 0.28; stroke-width: 0.35; stroke-linecap: square"/>
     </g>
     <g id="line2d_80">
      <g>
       <use xlink:href="#m69899ad64a" x="142.3056" y="470.991119" style="stroke: #000000; stroke-width: 0.6"/>
      </g>
     </g>
    </g>
    <g id="ytick_16">
     <g id="line2d_81">
      <path d="M 142.3056 483.695659 
L 1175.568 483.695659 
" clip-path="url(#pfdbb788a1f)" style="fill: none; stroke: #4a4a4a; stroke-opacity: 0.28; stroke-width: 0.35; stroke-linecap: square"/>
     </g>
     <g id="line2d_82">
      <g>
       <use xlink:href="#m69899ad64a" x="142.3056" y="483.695659" style="stroke: #000000; stroke-width: 0.6"/>
      </g>
     </g>
    </g>
    <g id="ytick_17">
     <g id="line2d_83">
      <path d="M 142.3056 494.700831 
L 1175.568 494.700831 
" clip-path="url(#pfdbb788a1f)" style="fill: none; stroke: #4a4a4a; stroke-opacity: 0.28; stroke-width: 0.35; stroke-linecap: square"/>
     </g>
     <g id="line2d_84">
      <g>
       <use xlink:href="#m69899ad64a" x="142.3056" y="494.700831" style="stroke: #000000; stroke-width: 0.6"/>
      </g>
     </g>
    </g>
    <g id="ytick_18">
     <g id="line2d_85">
      <path d="M 142.3056 504.408082 
L 1175.568 504.408082 
" clip-path="url(#pfdbb788a1f)" style="fill: none; stroke: #4a4a4a; stroke-opacity: 0.28; stroke-width: 0.35; stroke-linecap: square"/>
     </g>
     <g id="line2d_86">
      <g>
       <use xlink:href="#m69899ad64a" x="142.3056" y="504.408082" style="stroke: #000000; stroke-width: 0.6"/>
      </g>
     </g>
    </g>
    <g id="ytick_19">
     <g id="line2d_87">
      <path d="M 142.3056 570.218188 
L 1175.568 570.218188 
" clip-path="url(#pfdbb788a1f)" style="fill: none; stroke: #4a4a4a; stroke-opacity: 0.28; stroke-width: 0.35; stroke-linecap: square"/>
     </g>
     <g id="line2d_88">
      <g>
       <use xlink:href="#m69899ad64a" x="142.3056" y="570.218188" style="stroke: #000000; stroke-width: 0.6"/>
      </g>
     </g>
    </g>
    <g id="ytick_20">
     <g id="line2d_89">
      <path d="M 142.3056 603.63515 
L 1175.568 603.63515 
" clip-path="url(#pfdbb788a1f)" style="fill: none; stroke: #4a4a4a; stroke-opacity: 0.28; stroke-width: 0.35; stroke-linecap: square"/>
     </g>
     <g id="line2d_90">
      <g>
       <use xlink:href="#m69899ad64a" x="142.3056" y="603.63515" style="stroke: #000000; stroke-width: 0.6"/>
      </g>
     </g>
    </g>
    <g id="text_7">
     <!-- Full-path cost -->
     <g style="fill: #a0a0a0" transform="translate(52.743537 447.18375) rotate(-90) scale(0.16 -0.16)">
      <defs>
       <path id="Inter-Regular-46" d="M 563 0 
L 1156 0 
L 1156 2013 
L 3166 2013 
L 3166 2538 
L 1156 2538 
L 1156 4131 
L 3378 4131 
L 3378 4656 
L 563 4656 
L 563 0 
z
" transform="scale(0.015625)"/>
       <path id="Inter-Regular-2d" d="M 2494 2247 
L 450 2247 
L 450 1728 
L 2494 1728 
L 2494 2247 
z
" transform="scale(0.015625)"/>
       <path id="Inter-Regular-70" d="M 494 -1306 
L 1056 -1306 
L 1056 541 
L 1100 541 
C 1216 347 1450 -75 2116 -75 
C 2988 -75 3594 625 3594 1738 
C 3594 2844 2984 3538 2113 3538 
C 1431 3538 1216 3119 1100 2934 
L 1038 2934 
L 1038 3494 
L 494 3494 
L 494 -1306 
z
M 2031 428 
C 1397 428 1050 966 1050 1744 
C 1050 2516 1388 3034 2031 3034 
C 2694 3034 3022 2469 3022 1744 
C 3022 1009 2684 428 2031 428 
z
" transform="scale(0.015625)"/>
      </defs>
      <use xlink:href="#Inter-Regular-46"/>
      <use xlink:href="#Inter-Regular-75" transform="translate(59.033203 0)"/>
      <use xlink:href="#Inter-Regular-6c" transform="translate(118.164062 0)"/>
      <use xlink:href="#Inter-Regular-6c" transform="translate(142.382812 0)"/>
      <use xlink:href="#Inter-Regular-2d" transform="translate(166.601562 0)"/>
      <use xlink:href="#Inter-Regular-70" transform="translate(212.597656 0)"/>
      <use xlink:href="#Inter-Regular-61" transform="translate(273.828125 0)"/>
      <use xlink:href="#Inter-Regular-74" transform="translate(329.980469 0)"/>
      <use xlink:href="#Inter-Regular-68" transform="translate(362.695312 0)"/>
      <use xlink:href="#Inter-Regular-20" transform="translate(421.826172 0)"/>
      <use xlink:href="#Inter-Regular-63" transform="translate(449.951172 0)"/>
      <use xlink:href="#Inter-Regular-6f" transform="translate(507.080078 0)"/>
      <use xlink:href="#Inter-Regular-73" transform="translate(567.041016 0)"/>
      <use xlink:href="#Inter-Regular-74" transform="translate(619.824219 0)"/>
     </g>
     <!-- (fresh-data path + queries)  ·  lower cost ↑ -->
     <g style="fill: #a0a0a0" transform="translate(70.831537 557.13625) rotate(-90) scale(0.16 -0.16)">
      <defs>
       <path id="Inter-Regular-28" d="M 681 1897 
C 681 984 956 31 1488 -872 
L 2034 -872 
C 1497 238 1253 1069 1253 1897 
C 1253 2809 1550 3956 2034 4941 
L 1488 4941 
C 1019 4169 681 2913 681 1897 
z
" transform="scale(0.015625)"/>
       <path id="Inter-Regular-2b" d="M 1853 313 
L 2381 313 
L 2381 1575 
L 3625 1575 
L 3625 2072 
L 2381 2072 
L 2381 3331 
L 1853 3331 
L 1853 2072 
L 609 2072 
L 609 1575 
L 1853 1575 
L 1853 313 
z
" transform="scale(0.015625)"/>
       <path id="Inter-Regular-29" d="M 300 -872 
L 847 -872 
C 1369 16 1653 969 1653 1897 
C 1653 2909 1316 4172 847 4941 
L 300 4941 
C 784 3956 1081 2809 1081 1897 
C 1081 1094 853 269 300 -872 
z
" transform="scale(0.015625)"/>
       <path id="Inter-Regular-2191" d="M 631 2694 
L 994 2331 
L 1650 2991 
C 1925 3266 2256 3669 2497 3981 
C 2450 3744 2409 3503 2409 3263 
L 2409 0 
L 2928 0 
L 2928 3263 
C 2928 3503 2888 3744 2841 3981 
C 3081 3669 3413 3266 3688 2991 
L 4344 2331 
L 4706 2694 
L 2669 4731 
L 631 2694 
z
" transform="scale(0.015625)"/>
      </defs>
      <use xlink:href="#Inter-Regular-28"/>
      <use xlink:href="#Inter-Regular-66" transform="translate(36.474609 0)"/>
      <use xlink:href="#Inter-Regular-72" transform="translate(73.486328 0)"/>
      <use xlink:href="#Inter-Regular-65" transform="translate(111.132812 0)"/>
      <use xlink:href="#Inter-Regular-73" transform="translate(169.433594 0)"/>
      <use xlink:href="#Inter-Regular-68" transform="translate(222.216797 0)"/>
      <use xlink:href="#Inter-Regular-2d" transform="translate(281.347656 0)"/>
      <use xlink:href="#Inter-Regular-64" transform="translate(327.34375 0)"/>
      <use xlink:href="#Inter-Regular-61" transform="translate(388.574219 0)"/>
      <use xlink:href="#Inter-Regular-74" transform="translate(444.726562 0)"/>
      <use xlink:href="#Inter-Regular-61" transform="translate(477.441406 0)"/>
      <use xlink:href="#Inter-Regular-20" transform="translate(533.59375 0)"/>
      <use xlink:href="#Inter-Regular-70" transform="translate(561.71875 0)"/>
      <use xlink:href="#Inter-Regular-61" transform="translate(622.949219 0)"/>
      <use xlink:href="#Inter-Regular-74" transform="translate(679.101562 0)"/>
      <use xlink:href="#Inter-Regular-68" transform="translate(711.816406 0)"/>
      <use xlink:href="#Inter-Regular-20" transform="translate(770.947266 0)"/>
      <use xlink:href="#Inter-Regular-2b" transform="translate(799.072266 0)"/>
      <use xlink:href="#Inter-Regular-20" transform="translate(865.234375 0)"/>
      <use xlink:href="#Inter-Regular-71" transform="translate(893.359375 0)"/>
      <use xlink:href="#Inter-Regular-75" transform="translate(954.589844 0)"/>
      <use xlink:href="#Inter-Regular-65" transform="translate(1013.720703 0)"/>
      <use xlink:href="#Inter-Regular-72" transform="translate(1072.021484 0)"/>
      <use xlink:href="#Inter-Regular-69" transform="translate(1109.667969 0)"/>
      <use xlink:href="#Inter-Regular-65" transform="translate(1133.886719 0)"/>
      <use xlink:href="#Inter-Regular-73" transform="translate(1192.1875 0)"/>
      <use xlink:href="#Inter-Regular-29" transform="translate(1244.970703 0)"/>
      <use xlink:href="#Inter-Regular-20" transform="translate(1281.445312 0)"/>
      <use xlink:href="#Inter-Regular-20" transform="translate(1309.570312 0)"/>
      <use xlink:href="#Inter-Regular-b7" transform="translate(1337.695312 0)"/>
      <use xlink:href="#Inter-Regular-20" transform="translate(1366.503906 0)"/>
      <use xlink:href="#Inter-Regular-20" transform="translate(1394.628906 0)"/>
      <use xlink:href="#Inter-Regular-6c" transform="translate(1422.753906 0)"/>
      <use xlink:href="#Inter-Regular-6f" transform="translate(1446.972656 0)"/>
      <use xlink:href="#Inter-Regular-77" transform="translate(1506.933594 0)"/>
      <use xlink:href="#Inter-Regular-65" transform="translate(1588.769531 0)"/>
      <use xlink:href="#Inter-Regular-72" transform="translate(1647.070312 0)"/>
      <use xlink:href="#Inter-Regular-20" transform="translate(1684.716797 0)"/>
      <use xlink:href="#Inter-Regular-63" transform="translate(1712.841797 0)"/>
      <use xlink:href="#Inter-Regular-6f" transform="translate(1769.970703 0)"/>
      <use xlink:href="#Inter-Regular-73" transform="translate(1829.931641 0)"/>
      <use xlink:href="#Inter-Regular-74" transform="translate(1882.714844 0)"/>
      <use xlink:href="#Inter-Regular-20" transform="translate(1915.429688 0)"/>
      <use xlink:href="#Inter-Regular-2191" transform="translate(1943.554688 0)"/>
     </g>
    </g>
   </g>
   <g id="patch_4">
    <path d="M 142.3056 605.52 
L 142.3056 184.44 
" style="fill: none; stroke: #4a4a4a; stroke-width: 0.8; stroke-linejoin: miter; stroke-linecap: square"/>
   </g>
   <g id="patch_5">
    <path d="M 1175.568 605.52 
L 1175.568 184.44 
" style="fill: none; stroke: #4a4a4a; stroke-width: 0.8; stroke-linejoin: miter; stroke-linecap: square"/>
   </g>
   <g id="patch_6">
    <path d="M 142.3056 605.52 
L 1175.568 605.52 
" style="fill: none; stroke: #4a4a4a; stroke-width: 0.8; stroke-linejoin: miter; stroke-linecap: square"/>
   </g>
   <g id="patch_7">
    <path d="M 142.3056 184.44 
L 1175.568 184.44 
" style="fill: none; stroke: #4a4a4a; stroke-width: 0.8; stroke-linejoin: miter; stroke-linecap: square"/>
   </g>
   <g id="PathCollection_1">
    <defs>
     <path id="m6ce475d5d6" d="M 0 10.246951 
C 2.717523 10.246951 5.324109 9.167267 7.245688 7.245688 
C 9.167267 5.324109 10.246951 2.717523 10.246951 0 
C 10.246951 -2.717523 9.167267 -5.324109 7.245688 -7.245688 
C 5.324109 -9.167267 2.717523 -10.246951 0 -10.246951 
C -2.717523 -10.246951 -5.324109 -9.167267 -7.245688 -7.245688 
C -9.167267 -5.324109 -10.246951 -2.717523 -10.246951 0 
C -10.246951 2.717523 -9.167267 5.324109 -7.245688 7.245688 
C -5.324109 9.167267 -2.717523 10.246951 0 10.246951 
z
" style="stroke: #1c1c1a; stroke-width: 1.5"/>
    </defs>
    <g clip-path="url(#pfdbb788a1f)">
     <use xlink:href="#m6ce475d5d6" x="1088.591332" y="220.559381" style="fill: #fdff62; stroke: #1c1c1a; stroke-width: 1.5"/>
    </g>
   </g>
   <g id="PathCollection_2">
    <defs>
     <path id="mb292a75c5c" d="M 0 10.246951 
C 2.717523 10.246951 5.324109 9.167267 7.245688 7.245688 
C 9.167267 5.324109 10.246951 2.717523 10.246951 0 
C 10.246951 -2.717523 9.167267 -5.324109 7.245688 -7.245688 
C 5.324109 -9.167267 2.717523 -10.246951 0 -10.246951 
C -2.717523 -10.246951 -5.324109 -9.167267 -7.245688 -7.245688 
C -9.167267 -5.324109 -10.246951 -2.717523 -10.246951 0 
C -10.246951 2.717523 -9.167267 5.324109 -7.245688 7.245688 
C -5.324109 9.167267 -2.717523 10.246951 0 10.246951 
z
" style="stroke: #1c1c1a; stroke-width: 1.5"/>
    </defs>
    <g clip-path="url(#pfdbb788a1f)">
     <use xlink:href="#mb292a75c5c" x="298.306078" y="319.450176" style="fill: #29b5e8; stroke: #1c1c1a; stroke-width: 1.5"/>
    </g>
   </g>
   <g id="PathCollection_3">
    <defs>
     <path id="m45ae4adb06" d="M 0 10.246951 
C 2.717523 10.246951 5.324109 9.167267 7.245688 7.245688 
C 9.167267 5.324109 10.246951 2.717523 10.246951 0 
C 10.246951 -2.717523 9.167267 -5.324109 7.245688 -7.245688 
C 5.324109 -9.167267 2.717523 -10.246951 0 -10.246951 
C -2.717523 -10.246951 -5.324109 -9.167267 -7.245688 -7.245688 
C -9.167267 -5.324109 -10.246951 -2.717523 -10.246951 0 
C -10.246951 2.717523 -9.167267 5.324109 -7.245688 7.245688 
C -5.324109 9.167267 -2.717523 10.246951 0 10.246951 
z
" style="stroke: #1c1c1a; stroke-width: 1.5"/>
    </defs>
    <g clip-path="url(#pfdbb788a1f)">
     <use xlink:href="#m45ae4adb06" x="454.401511" y="398.121705" style="fill: #4285f4; stroke: #1c1c1a; stroke-width: 1.5"/>
    </g>
   </g>
   <g id="PathCollection_4">
    <g clip-path="url(#pfdbb788a1f)">
     <use xlink:href="#m45ae4adb06" x="454.401511" y="410.897966" style="fill: #4285f4; stroke: #1c1c1a; stroke-width: 1.5"/>
    </g>
   </g>
   <g id="PathCollection_5">
    <defs>
     <path id="m09c4e5ab77" d="M 0 10.246951 
C 2.717523 10.246951 5.324109 9.167267 7.245688 7.245688 
C 9.167267 5.324109 10.246951 2.717523 10.246951 0 
C 10.246951 -2.717523 9.167267 -5.324109 7.245688 -7.245688 
C 5.324109 -9.167267 2.717523 -10.246951 0 -10.246951 
C -2.717523 -10.246951 -5.324109 -9.167267 -7.245688 -7.245688 
C -9.167267 -5.324109 -10.246951 -2.717523 -10.246951 0 
C -10.246951 2.717523 -9.167267 5.324109 -7.245688 7.245688 
C -5.324109 9.167267 -2.717523 10.246951 0 10.246951 
z
" style="stroke: #1c1c1a; stroke-width: 1.5"/>
    </defs>
    <g clip-path="url(#pfdbb788a1f)">
     <use xlink:href="#m09c4e5ab77" x="336.126735" y="568.428933" style="fill: #ff9900; stroke: #1c1c1a; stroke-width: 1.5"/>
    </g>
   </g>
   <g id="PathCollection_6">
    <defs>
     <path id="m77346ed1f6" d="M 0 10.246951 
C 2.717523 10.246951 5.324109 9.167267 7.245688 7.245688 
C 9.167267 5.324109 10.246951 2.717523 10.246951 0 
C 10.246951 -2.717523 9.167267 -5.324109 7.245688 -7.245688 
C 5.324109 -9.167267 2.717523 -10.246951 0 -10.246951 
C -2.717523 -10.246951 -5.324109 -9.167267 -7.245688 -7.245688 
C -9.167267 -5.324109 -10.246951 -2.717523 -10.246951 0 
C -10.246951 2.717523 -9.167267 5.324109 -7.245688 7.245688 
C -5.324109 9.167267 -2.717523 10.246951 0 10.246951 
z
" style="stroke: #1c1c1a; stroke-width: 1.5"/>
    </defs>
    <g clip-path="url(#pfdbb788a1f)">
     <use xlink:href="#m77346ed1f6" x="224.38899" y="569.400619" style="fill: #e76f00; stroke: #1c1c1a; stroke-width: 1.5"/>
    </g>
   </g>
   <g id="text_8">
    <!-- ClickHouse -->
    <g style="fill: #fdff62" transform="translate(987.171332 205.294381) scale(0.16 -0.16)">
     <defs>
      <path id="Inter-Bold-43" d="M 2456 -63 
Q 1834 -63 1346 218 
Q 859 500 576 1034 
Q 294 1569 294 2325 
Q 294 3084 578 3620 
Q 863 4156 1353 4437 
Q 1844 4719 2456 4719 
Q 2984 4719 3412 4523 
Q 3841 4328 4116 3958 
Q 4391 3588 4459 3066 
L 3494 3066 
Q 3428 3444 3151 3658 
Q 2875 3872 2475 3872 
Q 1931 3872 1597 3469 
Q 1263 3066 1263 2325 
Q 1263 1569 1598 1176 
Q 1934 784 2472 784 
Q 2869 784 3148 998 
Q 3428 1213 3497 1594 
L 4463 1594 
Q 4409 1159 4156 782 
Q 3903 406 3473 171 
Q 3044 -63 2456 -63 
z
" transform="scale(0.015625)"/>
      <path id="Inter-Bold-6c" d="M 1338 4656 
L 1338 0 
L 400 0 
L 400 4656 
L 1338 4656 
z
" transform="scale(0.015625)"/>
      <path id="Inter-Bold-69" d="M 400 0 
L 400 3494 
L 1338 3494 
L 1338 0 
L 400 0 
z
M 871 3950 
Q 658 3950 508 4090 
Q 358 4231 358 4431 
Q 358 4631 508 4772 
Q 658 4913 871 4913 
Q 1083 4913 1234 4772 
Q 1386 4631 1386 4431 
Q 1386 4231 1234 4090 
Q 1083 3950 871 3950 
z
" transform="scale(0.015625)"/>
      <path id="Inter-Bold-63" d="M 1963 -69 
Q 1434 -69 1051 157 
Q 669 384 461 789 
Q 253 1194 253 1731 
Q 253 2272 461 2678 
Q 669 3084 1051 3311 
Q 1434 3538 1963 3538 
Q 2584 3538 3000 3227 
Q 3416 2916 3516 2375 
L 2644 2213 
Q 2584 2484 2414 2642 
Q 2244 2800 1972 2800 
Q 1597 2800 1403 2504 
Q 1209 2209 1209 1734 
Q 1209 1266 1403 967 
Q 1597 669 1972 669 
Q 2244 669 2419 833 
Q 2594 997 2650 1278 
L 3522 1119 
Q 3422 566 3006 248 
Q 2591 -69 1963 -69 
z
" transform="scale(0.015625)"/>
      <path id="Inter-Bold-6b" d="M 400 0 
L 400 4656 
L 1338 4656 
L 1338 2150 
L 1391 2150 
L 2534 3494 
L 3619 3494 
L 2313 1978 
L 3684 0 
L 2581 0 
L 1606 1425 
L 1338 1122 
L 1338 0 
L 400 0 
z
" transform="scale(0.015625)"/>
      <path id="Inter-Bold-48" d="M 422 0 
L 422 4656 
L 1375 4656 
L 1375 2775 
L 3403 2775 
L 3403 4656 
L 4359 4656 
L 4359 0 
L 3403 0 
L 3403 1984 
L 1375 1984 
L 1375 0 
L 422 0 
z
" transform="scale(0.015625)"/>
      <path id="Inter-Bold-6f" d="M 1963 -69 
Q 1438 -69 1053 157 
Q 669 384 461 789 
Q 253 1194 253 1731 
Q 253 2272 461 2678 
Q 669 3084 1053 3311 
Q 1438 3538 1963 3538 
Q 2488 3538 2872 3311 
Q 3256 3084 3464 2678 
Q 3672 2272 3672 1731 
Q 3672 1194 3464 789 
Q 3256 384 2872 157 
Q 2488 -69 1963 -69 
z
M 1963 669 
Q 2338 669 2528 972 
Q 2719 1275 2719 1734 
Q 2719 2197 2528 2498 
Q 2338 2800 1963 2800 
Q 1588 2800 1398 2498 
Q 1209 2197 1209 1734 
Q 1209 1275 1398 972 
Q 1588 669 1963 669 
z
" transform="scale(0.015625)"/>
      <path id="Inter-Bold-75" d="M 1603 -44 
Q 1059 -44 729 306 
Q 400 656 400 1272 
L 400 3494 
L 1338 3494 
L 1338 1434 
Q 1338 1109 1506 925 
Q 1675 741 1969 741 
Q 2269 741 2458 933 
Q 2647 1125 2647 1472 
L 2647 3494 
L 3588 3494 
L 3588 0 
L 2700 0 
L 2688 725 
Q 2541 353 2270 154 
Q 2000 -44 1603 -44 
z
" transform="scale(0.015625)"/>
      <path id="Inter-Bold-73" d="M 1788 -69 
Q 1156 -69 745 200 
Q 334 469 244 956 
L 1116 1106 
Q 1250 619 1816 619 
Q 2084 619 2239 720 
Q 2394 822 2394 978 
Q 2394 1244 1944 1338 
L 1341 1463 
Q 334 1669 334 2453 
Q 334 2956 737 3247 
Q 1141 3538 1803 3538 
Q 2425 3538 2794 3284 
Q 3163 3031 3259 2606 
L 2428 2459 
Q 2372 2638 2222 2752 
Q 2072 2866 1816 2866 
Q 1584 2866 1428 2767 
Q 1272 2669 1272 2513 
Q 1272 2381 1373 2289 
Q 1475 2197 1722 2147 
L 2350 2022 
Q 3350 1819 3350 1078 
Q 3350 734 3150 476 
Q 2950 219 2597 75 
Q 2244 -69 1788 -69 
z
" transform="scale(0.015625)"/>
      <path id="Inter-Bold-65" d="M 1978 -69 
Q 1444 -69 1056 150 
Q 669 369 461 772 
Q 253 1175 253 1728 
Q 253 2269 461 2675 
Q 669 3081 1045 3309 
Q 1422 3538 1931 3538 
Q 2388 3538 2759 3344 
Q 3131 3150 3351 2756 
Q 3572 2363 3572 1766 
L 3572 1503 
L 1181 1503 
Q 1197 1075 1419 856 
Q 1641 638 1994 638 
Q 2241 638 2417 742 
Q 2594 847 2669 1050 
L 3519 891 
Q 3391 456 2989 193 
Q 2588 -69 1978 -69 
z
M 1188 2091 
L 2669 2091 
Q 2634 2431 2450 2631 
Q 2266 2831 1941 2831 
Q 1603 2831 1409 2623 
Q 1216 2416 1188 2091 
z
" transform="scale(0.015625)"/>
     </defs>
     <use xlink:href="#Inter-Bold-43"/>
     <use xlink:href="#Inter-Bold-6c" transform="translate(73.974609 0)"/>
     <use xlink:href="#Inter-Bold-69" transform="translate(101.074219 0)"/>
     <use xlink:href="#Inter-Bold-63" transform="translate(128.173828 0)"/>
     <use xlink:href="#Inter-Bold-6b" transform="translate(187.011719 0)"/>
     <use xlink:href="#Inter-Bold-48" transform="translate(245.019531 0)"/>
     <use xlink:href="#Inter-Bold-6f" transform="translate(319.726562 0)"/>
     <use xlink:href="#Inter-Bold-75" transform="translate(381.054688 0)"/>
     <use xlink:href="#Inter-Bold-73" transform="translate(443.310547 0)"/>
     <use xlink:href="#Inter-Bold-65" transform="translate(499.316406 0)"/>
    </g>
   </g>
   <g id="text_9">
    <!-- Snowflake -->
    <g style="fill: #29b5e8" transform="translate(310.306078 306.185176) scale(0.16 -0.16)">
     <defs>
      <path id="Inter-Bold-53" d="M 2128 -69 
Q 1288 -69 786 317 
Q 284 703 266 1444 
L 1194 1444 
Q 1219 1091 1476 914 
Q 1734 738 2119 738 
Q 2500 738 2733 902 
Q 2966 1066 2966 1331 
Q 2966 1572 2755 1700 
Q 2544 1828 2163 1922 
L 1650 2050 
Q 1059 2194 725 2501 
Q 391 2809 391 3316 
Q 391 3738 617 4053 
Q 844 4369 1239 4544 
Q 1634 4719 2141 4719 
Q 2656 4719 3040 4542 
Q 3425 4366 3640 4052 
Q 3856 3738 3863 3328 
L 2941 3328 
Q 2916 3609 2702 3762 
Q 2488 3916 2131 3916 
Q 1766 3916 1567 3764 
Q 1369 3613 1369 3378 
Q 1369 3119 1592 2991 
Q 1816 2863 2113 2791 
L 2534 2688 
Q 2925 2597 3240 2426 
Q 3556 2256 3740 1986 
Q 3925 1716 3925 1325 
Q 3925 691 3451 311 
Q 2978 -69 2128 -69 
z
" transform="scale(0.015625)"/>
      <path id="Inter-Bold-6e" d="M 1338 2022 
L 1338 0 
L 400 0 
L 400 3494 
L 1284 3494 
L 1297 2772 
Q 1444 3138 1712 3338 
Q 1981 3538 2384 3538 
Q 2928 3538 3256 3188 
Q 3584 2838 3584 2222 
L 3584 0 
L 2647 0 
L 2647 2059 
Q 2647 2384 2480 2568 
Q 2313 2753 2016 2753 
Q 1716 2753 1527 2561 
Q 1338 2369 1338 2022 
z
" transform="scale(0.015625)"/>
      <path id="Inter-Bold-77" d="M 1128 0 
L 97 3494 
L 1081 3494 
L 1384 2203 
Q 1447 1913 1522 1578 
Q 1597 1244 1669 853 
Q 1741 1234 1820 1570 
Q 1900 1906 1972 2203 
L 2291 3494 
L 3153 3494 
L 3466 2203 
Q 3531 1906 3611 1572 
Q 3691 1238 3766 850 
Q 3831 1238 3903 1572 
Q 3975 1906 4044 2203 
L 4347 3494 
L 5344 3494 
L 4306 0 
L 3353 0 
L 2966 1347 
Q 2900 1572 2839 1853 
Q 2778 2134 2716 2409 
Q 2656 2134 2593 1851 
Q 2531 1569 2469 1347 
L 2081 0 
L 1128 0 
z
" transform="scale(0.015625)"/>
      <path id="Inter-Bold-66" d="M 2344 3494 
L 2344 2778 
L 1613 2778 
L 1613 0 
L 678 0 
L 678 2778 
L 63 2778 
L 63 3494 
L 678 3494 
L 678 3763 
Q 678 4319 1003 4597 
Q 1328 4875 1813 4875 
Q 2034 4875 2215 4840 
Q 2397 4806 2484 4778 
L 2316 4072 
Q 2259 4088 2176 4103 
Q 2094 4119 2003 4119 
Q 1788 4119 1700 4017 
Q 1613 3916 1613 3731 
L 1613 3494 
L 2344 3494 
z
" transform="scale(0.015625)"/>
      <path id="Inter-Bold-61" d="M 1375 -69 
Q 875 -69 544 195 
Q 213 459 213 978 
Q 213 1369 400 1591 
Q 588 1813 888 1916 
Q 1188 2019 1531 2050 
Q 1981 2094 2179 2142 
Q 2378 2191 2378 2363 
L 2378 2378 
Q 2378 2600 2236 2722 
Q 2094 2844 1831 2844 
Q 1559 2844 1393 2726 
Q 1228 2609 1172 2441 
L 313 2584 
Q 447 3038 848 3288 
Q 1250 3538 1834 3538 
Q 2209 3538 2548 3419 
Q 2888 3300 3102 3039 
Q 3316 2778 3316 2353 
L 3316 0 
L 2428 0 
L 2428 484 
L 2397 484 
Q 2269 241 2016 86 
Q 1763 -69 1375 -69 
z
M 1641 591 
Q 1969 591 2176 781 
Q 2384 972 2384 1250 
L 2384 1628 
Q 2328 1588 2201 1558 
Q 2075 1528 1934 1504 
Q 1794 1481 1691 1469 
Q 1431 1431 1272 1322 
Q 1113 1213 1113 1003 
Q 1113 800 1261 695 
Q 1409 591 1641 591 
z
" transform="scale(0.015625)"/>
     </defs>
     <use xlink:href="#Inter-Bold-53"/>
     <use xlink:href="#Inter-Bold-6e" transform="translate(65.478516 0)"/>
     <use xlink:href="#Inter-Bold-6f" transform="translate(127.734375 0)"/>
     <use xlink:href="#Inter-Bold-77" transform="translate(189.0625 0)"/>
     <use xlink:href="#Inter-Bold-66" transform="translate(274.072266 0)"/>
     <use xlink:href="#Inter-Bold-6c" transform="translate(313.867188 0)"/>
     <use xlink:href="#Inter-Bold-61" transform="translate(340.966797 0)"/>
     <use xlink:href="#Inter-Bold-6b" transform="translate(399.023438 0)"/>
     <use xlink:href="#Inter-Bold-65" transform="translate(457.03125 0)"/>
    </g>
   </g>
   <g id="text_10">
    <!-- BigQuery · Capacity -->
    <g style="fill: #4285f4" transform="translate(466.401511 381.669205) scale(0.16 -0.16)">
     <defs>
      <path id="Inter-Bold-42" d="M 422 0 
L 422 4656 
L 2269 4656 
Q 3034 4656 3420 4318 
Q 3806 3981 3806 3459 
Q 3806 3047 3567 2794 
Q 3328 2541 2969 2459 
L 2969 2413 
Q 3231 2400 3464 2262 
Q 3697 2125 3842 1876 
Q 3988 1628 3988 1284 
Q 3988 916 3806 625 
Q 3625 334 3269 167 
Q 2913 0 2388 0 
L 422 0 
z
M 1375 784 
L 2200 784 
Q 2622 784 2814 946 
Q 3006 1109 3006 1375 
Q 3006 1666 2795 1856 
Q 2584 2047 2225 2047 
L 1375 2047 
L 1375 784 
z
M 1375 2700 
L 2128 2700 
Q 2434 2700 2637 2862 
Q 2841 3025 2841 3306 
Q 2841 3559 2661 3718 
Q 2481 3878 2147 3878 
L 1375 3878 
L 1375 2700 
z
" transform="scale(0.015625)"/>
      <path id="Inter-Bold-67" d="M 1953 -1381 
Q 1297 -1381 897 -1140 
Q 497 -900 381 -525 
L 1188 -300 
Q 1253 -447 1429 -573 
Q 1606 -700 1947 -700 
Q 2303 -700 2509 -536 
Q 2716 -372 2716 -25 
L 2716 619 
L 2644 619 
Q 2547 406 2323 228 
Q 2100 50 1675 50 
Q 1281 50 959 234 
Q 638 419 445 797 
Q 253 1175 253 1753 
Q 253 2344 448 2741 
Q 644 3138 967 3338 
Q 1291 3538 1678 3538 
Q 1972 3538 2172 3438 
Q 2372 3338 2495 3191 
Q 2619 3044 2681 2906 
L 2722 2906 
L 2722 3494 
L 3644 3494 
L 3644 28 
Q 3644 -444 3426 -758 
Q 3209 -1072 2826 -1226 
Q 2444 -1381 1953 -1381 
z
M 1969 763 
Q 2328 763 2523 1027 
Q 2719 1291 2719 1759 
Q 2719 2225 2525 2506 
Q 2331 2788 1969 2788 
Q 1600 2788 1408 2498 
Q 1216 2209 1216 1759 
Q 1216 1300 1409 1031 
Q 1603 763 1969 763 
z
" transform="scale(0.015625)"/>
      <path id="Inter-Bold-51" d="M 2466 -63 
Q 1850 -63 1358 218 
Q 866 500 580 1034 
Q 294 1569 294 2325 
Q 294 3084 580 3620 
Q 866 4156 1358 4437 
Q 1850 4719 2466 4719 
Q 3084 4719 3575 4437 
Q 4066 4156 4352 3620 
Q 4638 3084 4638 2325 
Q 4638 1706 4442 1236 
Q 4247 766 3909 459 
L 4581 -388 
L 3691 -388 
L 3306 91 
Q 2919 -63 2466 -63 
z
M 2172 1600 
L 2988 1600 
L 3325 1166 
Q 3491 1359 3580 1651 
Q 3669 1944 3669 2325 
Q 3669 3078 3339 3475 
Q 3009 3872 2466 3872 
Q 1925 3872 1594 3473 
Q 1263 3075 1263 2325 
Q 1263 1578 1594 1181 
Q 1925 784 2466 784 
Q 2625 784 2766 819 
L 2172 1600 
z
" transform="scale(0.015625)"/>
      <path id="Inter-Bold-72" d="M 400 0 
L 400 3494 
L 1306 3494 
L 1306 2884 
L 1344 2884 
Q 1441 3206 1667 3373 
Q 1894 3541 2188 3541 
Q 2347 3541 2491 3509 
L 2491 2672 
Q 2428 2691 2308 2705 
Q 2188 2719 2084 2719 
Q 1759 2719 1548 2516 
Q 1338 2313 1338 1988 
L 1338 0 
L 400 0 
z
" transform="scale(0.015625)"/>
      <path id="Inter-Bold-79" d="M 375 -1238 
L 591 -531 
L 706 -559 
Q 991 -638 1172 -548 
Q 1353 -459 1384 -197 
L 1409 -9 
L 97 3494 
L 1094 3494 
L 1681 1681 
Q 1753 1453 1803 1226 
Q 1853 1000 1903 769 
Q 1959 1003 2020 1229 
Q 2081 1456 2156 1681 
L 2769 3494 
L 3753 3494 
L 2269 -413 
Q 2109 -834 1811 -1082 
Q 1513 -1331 988 -1331 
Q 800 -1331 637 -1304 
Q 475 -1278 375 -1238 
z
" transform="scale(0.015625)"/>
      <path id="Inter-Bold-20" transform="scale(0.015625)"/>
      <path id="Inter-Bold-b7" d="M 1069 1669 
Q 841 1669 684 1823 
Q 528 1978 528 2206 
Q 528 2434 684 2589 
Q 841 2744 1069 2744 
Q 1297 2744 1453 2589 
Q 1609 2434 1609 2206 
Q 1609 1978 1453 1823 
Q 1297 1669 1069 1669 
z
" transform="scale(0.015625)"/>
      <path id="Inter-Bold-70" d="M 400 -1306 
L 400 3494 
L 1322 3494 
L 1322 2906 
L 1366 2906 
Q 1428 3044 1548 3191 
Q 1669 3338 1867 3438 
Q 2066 3538 2363 3538 
Q 2750 3538 3072 3338 
Q 3394 3138 3586 2738 
Q 3778 2338 3778 1741 
Q 3778 1159 3590 757 
Q 3403 356 3081 148 
Q 2759 -59 2356 -59 
Q 2072 -59 1875 37 
Q 1678 134 1554 276 
Q 1431 419 1366 559 
L 1338 559 
L 1338 -1306 
L 400 -1306 
z
M 2069 694 
Q 2434 694 2626 987 
Q 2819 1281 2819 1744 
Q 2819 2203 2628 2495 
Q 2438 2788 2069 2788 
Q 1706 2788 1511 2503 
Q 1316 2219 1316 1744 
Q 1316 1269 1512 981 
Q 1709 694 2069 694 
z
" transform="scale(0.015625)"/>
      <path id="Inter-Bold-74" d="M 2134 3494 
L 2134 2778 
L 1481 2778 
L 1481 1022 
Q 1481 697 1800 697 
Q 1853 697 1948 711 
Q 2044 725 2097 738 
L 2231 34 
Q 2075 -13 1920 -31 
Q 1766 -50 1625 -50 
Q 1100 -50 822 204 
Q 544 459 544 941 
L 544 2778 
L 63 2778 
L 63 3494 
L 544 3494 
L 544 4325 
L 1481 4325 
L 1481 3494 
L 2134 3494 
z
" transform="scale(0.015625)"/>
     </defs>
     <use xlink:href="#Inter-Bold-42"/>
     <use xlink:href="#Inter-Bold-69" transform="translate(66.162109 0)"/>
     <use xlink:href="#Inter-Bold-67" transform="translate(93.261719 0)"/>
     <use xlink:href="#Inter-Bold-51" transform="translate(156.445312 0)"/>
     <use xlink:href="#Inter-Bold-75" transform="translate(234.130859 0)"/>
     <use xlink:href="#Inter-Bold-65" transform="translate(296.386719 0)"/>
     <use xlink:href="#Inter-Bold-72" transform="translate(355.957031 0)"/>
     <use xlink:href="#Inter-Bold-79" transform="translate(396.679688 0)"/>
     <use xlink:href="#Inter-Bold-20" transform="translate(456.884766 0)"/>
     <use xlink:href="#Inter-Bold-b7" transform="translate(480.566406 0)"/>
     <use xlink:href="#Inter-Bold-20" transform="translate(513.964844 0)"/>
     <use xlink:href="#Inter-Bold-43" transform="translate(537.646484 0)"/>
     <use xlink:href="#Inter-Bold-61" transform="translate(611.621094 0)"/>
     <use xlink:href="#Inter-Bold-70" transform="translate(669.677734 0)"/>
     <use xlink:href="#Inter-Bold-61" transform="translate(732.714844 0)"/>
     <use xlink:href="#Inter-Bold-63" transform="translate(790.771484 0)"/>
     <use xlink:href="#Inter-Bold-69" transform="translate(849.609375 0)"/>
     <use xlink:href="#Inter-Bold-74" transform="translate(876.708984 0)"/>
     <use xlink:href="#Inter-Bold-79" transform="translate(913.330078 0)"/>
    </g>
   </g>
   <g id="text_11">
    <!-- BigQuery · On-demand -->
    <g style="fill: #4285f4" transform="translate(466.401511 436.180466) scale(0.16 -0.16)">
     <defs>
      <path id="Inter-Bold-4f" d="M 2466 -63 
Q 1850 -63 1358 218 
Q 866 500 580 1034 
Q 294 1569 294 2325 
Q 294 3084 580 3620 
Q 866 4156 1358 4437 
Q 1850 4719 2466 4719 
Q 3084 4719 3575 4437 
Q 4066 4156 4352 3620 
Q 4638 3084 4638 2325 
Q 4638 1566 4352 1033 
Q 4066 500 3575 218 
Q 3084 -63 2466 -63 
z
M 2466 784 
Q 3009 784 3339 1179 
Q 3669 1575 3669 2325 
Q 3669 3078 3339 3475 
Q 3009 3872 2466 3872 
Q 1925 3872 1594 3473 
Q 1263 3075 1263 2325 
Q 1263 1578 1594 1181 
Q 1925 784 2466 784 
z
" transform="scale(0.015625)"/>
      <path id="Inter-Bold-2d" d="M 2556 2291 
L 2556 1541 
L 438 1541 
L 438 2291 
L 2556 2291 
z
" transform="scale(0.015625)"/>
      <path id="Inter-Bold-64" d="M 1678 -59 
Q 1275 -59 953 148 
Q 631 356 442 757 
Q 253 1159 253 1741 
Q 253 2338 447 2738 
Q 641 3138 962 3338 
Q 1284 3538 1672 3538 
Q 1969 3538 2166 3438 
Q 2363 3338 2483 3191 
Q 2603 3044 2666 2906 
L 2697 2906 
L 2697 4656 
L 3634 4656 
L 3634 0 
L 2713 0 
L 2713 559 
L 2666 559 
Q 2600 419 2478 276 
Q 2356 134 2159 37 
Q 1963 -59 1678 -59 
z
M 1966 694 
Q 2322 694 2519 981 
Q 2716 1269 2716 1744 
Q 2716 2219 2520 2503 
Q 2325 2788 1966 2788 
Q 1597 2788 1406 2495 
Q 1216 2203 1216 1744 
Q 1216 1281 1408 987 
Q 1600 694 1966 694 
z
" transform="scale(0.015625)"/>
      <path id="Inter-Bold-6d" d="M 400 0 
L 400 3494 
L 1269 3494 
L 1306 2816 
Q 1447 3197 1719 3372 
Q 1991 3547 2303 3547 
Q 2966 3547 3203 2763 
Q 3350 3166 3658 3356 
Q 3966 3547 4325 3547 
Q 4806 3547 5123 3236 
Q 5441 2925 5441 2356 
L 5441 0 
L 4503 0 
L 4503 2178 
Q 4503 2472 4342 2617 
Q 4181 2763 3947 2763 
Q 3681 2763 3526 2594 
Q 3372 2425 3372 2150 
L 3372 0 
L 2466 0 
L 2466 2203 
Q 2466 2459 2314 2611 
Q 2163 2763 1922 2763 
Q 1675 2763 1506 2595 
Q 1338 2428 1338 2113 
L 1338 0 
L 400 0 
z
" transform="scale(0.015625)"/>
     </defs>
     <use xlink:href="#Inter-Bold-42"/>
     <use xlink:href="#Inter-Bold-69" transform="translate(66.162109 0)"/>
     <use xlink:href="#Inter-Bold-67" transform="translate(93.261719 0)"/>
     <use xlink:href="#Inter-Bold-51" transform="translate(156.445312 0)"/>
     <use xlink:href="#Inter-Bold-75" transform="translate(234.130859 0)"/>
     <use xlink:href="#Inter-Bold-65" transform="translate(296.386719 0)"/>
     <use xlink:href="#Inter-Bold-72" transform="translate(355.957031 0)"/>
     <use xlink:href="#Inter-Bold-79" transform="translate(396.679688 0)"/>
     <use xlink:href="#Inter-Bold-20" transform="translate(456.884766 0)"/>
     <use xlink:href="#Inter-Bold-b7" transform="translate(480.566406 0)"/>
     <use xlink:href="#Inter-Bold-20" transform="translate(513.964844 0)"/>
     <use xlink:href="#Inter-Bold-4f" transform="translate(537.646484 0)"/>
     <use xlink:href="#Inter-Bold-6e" transform="translate(614.697266 0)"/>
     <use xlink:href="#Inter-Bold-2d" transform="translate(676.953125 0)"/>
     <use xlink:href="#Inter-Bold-64" transform="translate(723.730469 0)"/>
     <use xlink:href="#Inter-Bold-65" transform="translate(786.767578 0)"/>
     <use xlink:href="#Inter-Bold-6d" transform="translate(846.337891 0)"/>
     <use xlink:href="#Inter-Bold-61" transform="translate(937.597656 0)"/>
     <use xlink:href="#Inter-Bold-6e" transform="translate(995.654297 0)"/>
     <use xlink:href="#Inter-Bold-64" transform="translate(1057.910156 0)"/>
    </g>
   </g>
   <g id="text_12">
    <!-- Redshift · SUPER -->
    <g style="fill: #ff9900" transform="translate(192.811735 553.163933) scale(0.16 -0.16)">
     <defs>
      <path id="Inter-Bold-52" d="M 422 0 
L 422 4656 
L 2238 4656 
Q 3031 4656 3467 4242 
Q 3903 3828 3903 3141 
Q 3903 2663 3690 2323 
Q 3478 1984 3078 1816 
L 4069 0 
L 3013 0 
L 2125 1663 
L 1375 1663 
L 1375 0 
L 422 0 
z
M 1375 2434 
L 2063 2434 
Q 2919 2434 2919 3141 
Q 2919 3494 2708 3681 
Q 2497 3869 2059 3869 
L 1375 3869 
L 1375 2434 
z
" transform="scale(0.015625)"/>
      <path id="Inter-Bold-68" d="M 1338 2022 
L 1338 0 
L 400 0 
L 400 4656 
L 1319 4656 
L 1319 2825 
Q 1472 3166 1734 3352 
Q 1997 3538 2384 3538 
Q 2928 3538 3258 3188 
Q 3588 2838 3588 2222 
L 3588 0 
L 2647 0 
L 2647 2059 
Q 2647 2384 2480 2568 
Q 2313 2753 2016 2753 
Q 1716 2753 1527 2561 
Q 1338 2369 1338 2022 
z
" transform="scale(0.015625)"/>
      <path id="Inter-Bold-55" d="M 2344 -66 
Q 1763 -66 1331 146 
Q 900 359 661 742 
Q 422 1125 422 1634 
L 422 4656 
L 1375 4656 
L 1375 1713 
Q 1375 1306 1639 1042 
Q 1903 778 2344 778 
Q 2781 778 3045 1042 
Q 3309 1306 3309 1713 
L 3309 4656 
L 4266 4656 
L 4266 1634 
Q 4266 1125 4023 742 
Q 3781 359 3350 146 
Q 2919 -66 2344 -66 
z
" transform="scale(0.015625)"/>
      <path id="Inter-Bold-50" d="M 422 0 
L 422 4656 
L 2238 4656 
Q 2769 4656 3141 4454 
Q 3513 4253 3708 3898 
Q 3903 3544 3903 3084 
Q 3903 2622 3704 2270 
Q 3506 1919 3128 1720 
Q 2750 1522 2216 1522 
L 1375 1522 
L 1375 0 
L 422 0 
z
M 1375 2291 
L 2063 2291 
Q 2500 2291 2709 2512 
Q 2919 2734 2919 3084 
Q 2919 3438 2709 3653 
Q 2500 3869 2059 3869 
L 1375 3869 
L 1375 2291 
z
" transform="scale(0.015625)"/>
      <path id="Inter-Bold-45" d="M 422 0 
L 422 4656 
L 3538 4656 
L 3538 3866 
L 1375 3866 
L 1375 2741 
L 3375 2741 
L 3375 1963 
L 1375 1963 
L 1375 791 
L 3544 791 
L 3544 0 
L 422 0 
z
" transform="scale(0.015625)"/>
     </defs>
     <use xlink:href="#Inter-Bold-52"/>
     <use xlink:href="#Inter-Bold-65" transform="translate(65.673828 0)"/>
     <use xlink:href="#Inter-Bold-64" transform="translate(125.244141 0)"/>
     <use xlink:href="#Inter-Bold-73" transform="translate(188.28125 0)"/>
     <use xlink:href="#Inter-Bold-68" transform="translate(244.287109 0)"/>
     <use xlink:href="#Inter-Bold-69" transform="translate(306.542969 0)"/>
     <use xlink:href="#Inter-Bold-66" transform="translate(333.642578 0)"/>
     <use xlink:href="#Inter-Bold-74" transform="translate(373.4375 0)"/>
     <use xlink:href="#Inter-Bold-20" transform="translate(410.058594 0)"/>
     <use xlink:href="#Inter-Bold-b7" transform="translate(433.740234 0)"/>
     <use xlink:href="#Inter-Bold-20" transform="translate(467.138672 0)"/>
     <use xlink:href="#Inter-Bold-53" transform="translate(490.820312 0)"/>
     <use xlink:href="#Inter-Bold-55" transform="translate(556.298828 0)"/>
     <use xlink:href="#Inter-Bold-50" transform="translate(629.492188 0)"/>
     <use xlink:href="#Inter-Bold-45" transform="translate(694.287109 0)"/>
     <use xlink:href="#Inter-Bold-52" transform="translate(755.029297 0)"/>
    </g>
   </g>
   <g id="text_13">
    <!-- Redshift · Typed -->
    <g style="fill: #e76f00" transform="translate(83.84149 593.683119) scale(0.16 -0.16)">
     <defs>
      <path id="Inter-Bold-54" d="M 234 3866 
L 234 4656 
L 4038 4656 
L 4038 3866 
L 2616 3866 
L 2616 0 
L 1659 0 
L 1659 3866 
L 234 3866 
z
" transform="scale(0.015625)"/>
     </defs>
     <use xlink:href="#Inter-Bold-52"/>
     <use xlink:href="#Inter-Bold-65" transform="translate(65.673828 0)"/>
     <use xlink:href="#Inter-Bold-64" transform="translate(125.244141 0)"/>
     <use xlink:href="#Inter-Bold-73" transform="translate(188.28125 0)"/>
     <use xlink:href="#Inter-Bold-68" transform="translate(244.287109 0)"/>
     <use xlink:href="#Inter-Bold-69" transform="translate(306.542969 0)"/>
     <use xlink:href="#Inter-Bold-66" transform="translate(333.642578 0)"/>
     <use xlink:href="#Inter-Bold-74" transform="translate(373.4375 0)"/>
     <use xlink:href="#Inter-Bold-20" transform="translate(410.058594 0)"/>
     <use xlink:href="#Inter-Bold-b7" transform="translate(433.740234 0)"/>
     <use xlink:href="#Inter-Bold-20" transform="translate(467.138672 0)"/>
     <use xlink:href="#Inter-Bold-54" transform="translate(490.820312 0)"/>
     <use xlink:href="#Inter-Bold-79" transform="translate(557.568359 0)"/>
     <use xlink:href="#Inter-Bold-70" transform="translate(617.773438 0)"/>
     <use xlink:href="#Inter-Bold-65" transform="translate(680.810547 0)"/>
     <use xlink:href="#Inter-Bold-64" transform="translate(740.380859 0)"/>
    </g>
   </g>
  </g>
 </g>
 <defs>
  <clipPath id="pfdbb788a1f">
   <rect x="142.3056" y="184.44" width="1033.2624" height="421.08"/>
  </clipPath>
 </defs>
</svg>
